<mxfile host="app.diagrams.net" agent="Mozilla/5.0 (Macintosh; Intel Mac OS X 10_15_7) AppleWebKit/537.36 (KHTML, like Gecko) Chrome/131.0.0.0 Safari/537.36" version="24.9.0">
  <diagram name="main" id="SoBlqaXpW2YxNoorz7gl">
    <mxGraphModel dx="1708" dy="1275" grid="1" gridSize="10" guides="1" tooltips="1" connect="1" arrows="1" fold="1" page="1" pageScale="1" pageWidth="827" pageHeight="1169" math="0" shadow="0">
      <root>
        <mxCell id="0" />
        <mxCell id="1" parent="0" />
        <mxCell id="7" value="" style="group" parent="1" vertex="1" connectable="0">
          <mxGeometry x="530" y="680" width="210" height="200" as="geometry" />
        </mxCell>
        <mxCell id="3" value="" style="shape=dataStorage;whiteSpace=wrap;html=1;fixedSize=1;rotation=-180;size=39.99999999999977;strokeWidth=3;strokeColor=#02C797;" parent="7" vertex="1">
          <mxGeometry width="210" height="195" as="geometry" />
        </mxCell>
        <mxCell id="5" value="&lt;b&gt;Aquisição&lt;br&gt;de&amp;nbsp;Dados&lt;br&gt;&lt;/b&gt;" style="text;html=1;strokeColor=none;fillColor=none;align=center;verticalAlign=middle;whiteSpace=wrap;rounded=0;strokeWidth=3;fontSize=18;fontColor=#02C797;" parent="7" vertex="1">
          <mxGeometry x="78.75" y="82.5" width="78.75" height="30" as="geometry" />
        </mxCell>
        <mxCell id="4" value="Problema / Planejamento" style="shape=delay;whiteSpace=wrap;html=1;fontColor=#02C797;strokeColor=#02C797;strokeWidth=3;fontStyle=1;fontSize=18;fillColor=#FFFFFF;" parent="7" vertex="1">
          <mxGeometry x="-183.75" width="210" height="200" as="geometry" />
        </mxCell>
        <mxCell id="8" value="" style="group" parent="1" vertex="1" connectable="0">
          <mxGeometry x="720" y="680" width="160" height="195" as="geometry" />
        </mxCell>
        <mxCell id="9" value="" style="shape=dataStorage;whiteSpace=wrap;html=1;fixedSize=1;rotation=-180;size=39.99999999999977;strokeWidth=3;strokeColor=#02C797;" parent="8" vertex="1">
          <mxGeometry width="210" height="195" as="geometry" />
        </mxCell>
        <mxCell id="10" value="&lt;b&gt;Preparação de Dados&lt;br&gt;&lt;/b&gt;" style="text;html=1;strokeColor=none;fillColor=none;align=center;verticalAlign=middle;whiteSpace=wrap;rounded=0;strokeWidth=3;fontSize=18;fontColor=#02C797;" parent="8" vertex="1">
          <mxGeometry x="92" y="82.5" width="60" height="30" as="geometry" />
        </mxCell>
        <mxCell id="11" value="" style="group" parent="1" vertex="1" connectable="0">
          <mxGeometry x="910" y="680" width="160" height="195" as="geometry" />
        </mxCell>
        <mxCell id="12" value="" style="shape=dataStorage;whiteSpace=wrap;html=1;fixedSize=1;rotation=-180;size=39.99999999999977;strokeWidth=3;strokeColor=#02C797;" parent="11" vertex="1">
          <mxGeometry width="210" height="195" as="geometry" />
        </mxCell>
        <mxCell id="13" value="&lt;b&gt;Engenharia do Modelo&lt;br&gt;&lt;/b&gt;" style="text;html=1;strokeColor=none;fillColor=none;align=center;verticalAlign=middle;whiteSpace=wrap;rounded=0;strokeWidth=3;fontSize=18;fontColor=#02C797;" parent="11" vertex="1">
          <mxGeometry x="88" y="82.5" width="60" height="30" as="geometry" />
        </mxCell>
        <mxCell id="14" value="" style="group" parent="1" vertex="1" connectable="0">
          <mxGeometry x="1100" y="680" width="210" height="195" as="geometry" />
        </mxCell>
        <mxCell id="15" value="" style="shape=dataStorage;whiteSpace=wrap;html=1;fixedSize=1;rotation=-180;size=39.99999999999977;strokeWidth=3;strokeColor=#02C797;" parent="14" vertex="1">
          <mxGeometry width="210" height="195" as="geometry" />
        </mxCell>
        <mxCell id="16" value="&lt;b&gt;Avaliação do Modelo&lt;br&gt;&lt;/b&gt;" style="text;html=1;strokeColor=none;fillColor=none;align=center;verticalAlign=middle;whiteSpace=wrap;rounded=0;strokeWidth=3;fontSize=18;fontColor=#02C797;" parent="14" vertex="1">
          <mxGeometry x="78.75" y="82.5" width="78.75" height="30" as="geometry" />
        </mxCell>
        <mxCell id="17" value="" style="group" parent="1" vertex="1" connectable="0">
          <mxGeometry x="1290" y="680" width="210" height="195" as="geometry" />
        </mxCell>
        <mxCell id="18" value="" style="shape=dataStorage;whiteSpace=wrap;html=1;fixedSize=1;rotation=-180;size=39.99999999999977;strokeWidth=3;strokeColor=#02C797;" parent="17" vertex="1">
          <mxGeometry width="210" height="195" as="geometry" />
        </mxCell>
        <mxCell id="19" value="&lt;b&gt;Deployment do Moddelo&lt;br&gt;&lt;/b&gt;" style="text;html=1;strokeColor=none;fillColor=none;align=center;verticalAlign=middle;whiteSpace=wrap;rounded=0;strokeWidth=3;fontSize=18;fontColor=#02C797;" parent="17" vertex="1">
          <mxGeometry x="78.75" y="82.5" width="78.75" height="30" as="geometry" />
        </mxCell>
        <mxCell id="20" value="" style="group" parent="1" vertex="1" connectable="0">
          <mxGeometry x="1480" y="680" width="210" height="195" as="geometry" />
        </mxCell>
        <mxCell id="21" value="" style="shape=dataStorage;whiteSpace=wrap;html=1;fixedSize=1;rotation=-180;size=39.99999999999977;strokeWidth=3;strokeColor=#02C797;" parent="20" vertex="1">
          <mxGeometry width="210" height="195" as="geometry" />
        </mxCell>
        <mxCell id="22" value="&lt;b&gt;Monitoramento e Manutenção&lt;br&gt;&lt;/b&gt;" style="text;html=1;strokeColor=none;fillColor=none;align=center;verticalAlign=middle;whiteSpace=wrap;rounded=0;strokeWidth=3;fontSize=18;fontColor=#02C797;" parent="20" vertex="1">
          <mxGeometry x="78.75" y="82.5" width="78.75" height="30" as="geometry" />
        </mxCell>
        <mxCell id="23" value="" style="endArrow=classic;startArrow=classic;html=1;rounded=0;startSize=14;endSize=14;sourcePerimeterSpacing=8;targetPerimeterSpacing=8;curved=1;strokeWidth=4;strokeColor=#02C797;" parent="1" edge="1">
          <mxGeometry width="50" height="50" relative="1" as="geometry">
            <mxPoint x="530" y="920" as="sourcePoint" />
            <mxPoint x="900" y="920" as="targetPoint" />
          </mxGeometry>
        </mxCell>
        <mxCell id="24" value="" style="endArrow=classic;startArrow=classic;html=1;rounded=0;startSize=14;endSize=14;sourcePerimeterSpacing=8;targetPerimeterSpacing=8;curved=1;strokeWidth=4;strokeColor=#02C797;" parent="1" edge="1">
          <mxGeometry width="50" height="50" relative="1" as="geometry">
            <mxPoint x="910" y="920" as="sourcePoint" />
            <mxPoint x="1280" y="920" as="targetPoint" />
          </mxGeometry>
        </mxCell>
        <mxCell id="25" value="" style="endArrow=classic;startArrow=classic;html=1;rounded=0;startSize=14;endSize=14;sourcePerimeterSpacing=8;targetPerimeterSpacing=8;curved=1;strokeWidth=4;strokeColor=#02C797;" parent="1" edge="1">
          <mxGeometry width="50" height="50" relative="1" as="geometry">
            <mxPoint x="1290" y="920" as="sourcePoint" />
            <mxPoint x="1660" y="920" as="targetPoint" />
          </mxGeometry>
        </mxCell>
        <mxCell id="26" value="SQL/NoSQL,&lt;br style=&quot;font-size: 18px;&quot;&gt;Ferramentas de Data Wrangling, Ferramentas Estatísticas, Ferramentas de Visualização de Dados" style="text;strokeColor=none;fillColor=none;html=1;align=center;verticalAlign=middle;whiteSpace=wrap;rounded=0;fontSize=18;fontStyle=1;fontColor=#FFFFFF;" parent="1" vertex="1">
          <mxGeometry x="570" y="940" width="300" height="120" as="geometry" />
        </mxCell>
        <mxCell id="appupz2Tg2iBEeVuKGGf-26" value="Ferramentas estatísticas avançadas, técnicas de&amp;nbsp;&lt;i&gt;machine learning, &lt;/i&gt;ferramentas de recuperação, transferência e armazenamento de dados em altos volumes" style="text;strokeColor=none;fillColor=none;html=1;align=center;verticalAlign=middle;whiteSpace=wrap;rounded=0;fontSize=18;fontStyle=1;fontColor=#FFFFFF;" vertex="1" parent="1">
          <mxGeometry x="950" y="940" width="300" height="120" as="geometry" />
        </mxCell>
        <mxCell id="appupz2Tg2iBEeVuKGGf-27" value="Ferramentas de &lt;i&gt;devops&lt;/i&gt;, infraestrutura e escalabilidade, &lt;i&gt;logs, distributed tracing, &lt;/i&gt;métricas..." style="text;strokeColor=none;fillColor=none;html=1;align=center;verticalAlign=middle;whiteSpace=wrap;rounded=0;fontSize=18;fontStyle=1;fontColor=#FFFFFF;" vertex="1" parent="1">
          <mxGeometry x="1330" y="940" width="300" height="120" as="geometry" />
        </mxCell>
        <mxCell id="appupz2Tg2iBEeVuKGGf-28" value="" style="group" vertex="1" connectable="0" parent="1">
          <mxGeometry x="540" y="1280" width="210" height="200" as="geometry" />
        </mxCell>
        <mxCell id="appupz2Tg2iBEeVuKGGf-29" value="" style="shape=dataStorage;whiteSpace=wrap;html=1;fixedSize=1;rotation=-180;size=39.99999999999977;strokeWidth=3;strokeColor=#02C797;" vertex="1" parent="appupz2Tg2iBEeVuKGGf-28">
          <mxGeometry width="210" height="195" as="geometry" />
        </mxCell>
        <mxCell id="appupz2Tg2iBEeVuKGGf-30" value="&lt;b&gt;Aquisição&lt;br&gt;de&amp;nbsp;Dados&lt;br&gt;&lt;/b&gt;" style="text;html=1;strokeColor=none;fillColor=none;align=center;verticalAlign=middle;whiteSpace=wrap;rounded=0;strokeWidth=3;fontSize=18;fontColor=#02C797;" vertex="1" parent="appupz2Tg2iBEeVuKGGf-28">
          <mxGeometry x="78.75" y="82.5" width="78.75" height="30" as="geometry" />
        </mxCell>
        <mxCell id="appupz2Tg2iBEeVuKGGf-31" value="Problema / Planejamento" style="shape=delay;whiteSpace=wrap;html=1;fontColor=#02C797;strokeColor=#02C797;strokeWidth=3;fontStyle=1;fontSize=18;fillColor=#FFFFFF;" vertex="1" parent="appupz2Tg2iBEeVuKGGf-28">
          <mxGeometry x="-183.75" width="210" height="200" as="geometry" />
        </mxCell>
        <mxCell id="appupz2Tg2iBEeVuKGGf-32" value="" style="group" vertex="1" connectable="0" parent="1">
          <mxGeometry x="730" y="1280" width="160" height="195" as="geometry" />
        </mxCell>
        <mxCell id="appupz2Tg2iBEeVuKGGf-33" value="" style="shape=dataStorage;whiteSpace=wrap;html=1;fixedSize=1;rotation=-180;size=39.99999999999977;strokeWidth=3;strokeColor=#02C797;" vertex="1" parent="appupz2Tg2iBEeVuKGGf-32">
          <mxGeometry width="210" height="195" as="geometry" />
        </mxCell>
        <mxCell id="appupz2Tg2iBEeVuKGGf-34" value="&lt;b&gt;Preparação de Dados&lt;br&gt;&lt;/b&gt;" style="text;html=1;strokeColor=none;fillColor=none;align=center;verticalAlign=middle;whiteSpace=wrap;rounded=0;strokeWidth=3;fontSize=18;fontColor=#02C797;" vertex="1" parent="appupz2Tg2iBEeVuKGGf-32">
          <mxGeometry x="92" y="82.5" width="60" height="30" as="geometry" />
        </mxCell>
        <mxCell id="appupz2Tg2iBEeVuKGGf-35" value="" style="group" vertex="1" connectable="0" parent="1">
          <mxGeometry x="920" y="1280" width="160" height="195" as="geometry" />
        </mxCell>
        <mxCell id="appupz2Tg2iBEeVuKGGf-36" value="" style="shape=dataStorage;whiteSpace=wrap;html=1;fixedSize=1;rotation=-180;size=39.99999999999977;strokeWidth=3;strokeColor=#02C797;" vertex="1" parent="appupz2Tg2iBEeVuKGGf-35">
          <mxGeometry width="210" height="195" as="geometry" />
        </mxCell>
        <mxCell id="appupz2Tg2iBEeVuKGGf-37" value="&lt;b&gt;Engenharia do Modelo&lt;br&gt;&lt;/b&gt;" style="text;html=1;strokeColor=none;fillColor=none;align=center;verticalAlign=middle;whiteSpace=wrap;rounded=0;strokeWidth=3;fontSize=18;fontColor=#02C797;" vertex="1" parent="appupz2Tg2iBEeVuKGGf-35">
          <mxGeometry x="88" y="82.5" width="60" height="30" as="geometry" />
        </mxCell>
        <mxCell id="appupz2Tg2iBEeVuKGGf-38" value="" style="group" vertex="1" connectable="0" parent="1">
          <mxGeometry x="1110" y="1280" width="210" height="195" as="geometry" />
        </mxCell>
        <mxCell id="appupz2Tg2iBEeVuKGGf-39" value="" style="shape=dataStorage;whiteSpace=wrap;html=1;fixedSize=1;rotation=-180;size=39.99999999999977;strokeWidth=3;strokeColor=#02C797;" vertex="1" parent="appupz2Tg2iBEeVuKGGf-38">
          <mxGeometry width="210" height="195" as="geometry" />
        </mxCell>
        <mxCell id="appupz2Tg2iBEeVuKGGf-40" value="&lt;b&gt;Avaliação do Modelo&lt;br&gt;&lt;/b&gt;" style="text;html=1;strokeColor=none;fillColor=none;align=center;verticalAlign=middle;whiteSpace=wrap;rounded=0;strokeWidth=3;fontSize=18;fontColor=#02C797;" vertex="1" parent="appupz2Tg2iBEeVuKGGf-38">
          <mxGeometry x="78.75" y="82.5" width="78.75" height="30" as="geometry" />
        </mxCell>
        <mxCell id="appupz2Tg2iBEeVuKGGf-41" value="" style="group" vertex="1" connectable="0" parent="1">
          <mxGeometry x="1300" y="1280" width="210" height="195" as="geometry" />
        </mxCell>
        <mxCell id="appupz2Tg2iBEeVuKGGf-42" value="" style="shape=dataStorage;whiteSpace=wrap;html=1;fixedSize=1;rotation=-180;size=39.99999999999977;strokeWidth=3;strokeColor=#02C797;" vertex="1" parent="appupz2Tg2iBEeVuKGGf-41">
          <mxGeometry width="210" height="195" as="geometry" />
        </mxCell>
        <mxCell id="appupz2Tg2iBEeVuKGGf-43" value="&lt;b&gt;Deployment do Moddelo&lt;br&gt;&lt;/b&gt;" style="text;html=1;strokeColor=none;fillColor=none;align=center;verticalAlign=middle;whiteSpace=wrap;rounded=0;strokeWidth=3;fontSize=18;fontColor=#02C797;" vertex="1" parent="appupz2Tg2iBEeVuKGGf-41">
          <mxGeometry x="78.75" y="82.5" width="78.75" height="30" as="geometry" />
        </mxCell>
        <mxCell id="appupz2Tg2iBEeVuKGGf-44" value="" style="group" vertex="1" connectable="0" parent="1">
          <mxGeometry x="1490" y="1280" width="210" height="195" as="geometry" />
        </mxCell>
        <mxCell id="appupz2Tg2iBEeVuKGGf-45" value="" style="shape=dataStorage;whiteSpace=wrap;html=1;fixedSize=1;rotation=-180;size=39.99999999999977;strokeWidth=3;strokeColor=#02C797;" vertex="1" parent="appupz2Tg2iBEeVuKGGf-44">
          <mxGeometry width="210" height="195" as="geometry" />
        </mxCell>
        <mxCell id="appupz2Tg2iBEeVuKGGf-46" value="&lt;b&gt;Monitoramento e Manutenção&lt;br&gt;&lt;/b&gt;" style="text;html=1;strokeColor=none;fillColor=none;align=center;verticalAlign=middle;whiteSpace=wrap;rounded=0;strokeWidth=3;fontSize=18;fontColor=#02C797;" vertex="1" parent="appupz2Tg2iBEeVuKGGf-44">
          <mxGeometry x="78.75" y="82.5" width="78.75" height="30" as="geometry" />
        </mxCell>
        <mxCell id="appupz2Tg2iBEeVuKGGf-47" value="" style="endArrow=classic;startArrow=classic;html=1;rounded=0;startSize=14;endSize=14;sourcePerimeterSpacing=8;targetPerimeterSpacing=8;curved=1;strokeWidth=4;strokeColor=#02C797;" edge="1" parent="1">
          <mxGeometry width="50" height="50" relative="1" as="geometry">
            <mxPoint x="540" y="1520" as="sourcePoint" />
            <mxPoint x="910" y="1520" as="targetPoint" />
          </mxGeometry>
        </mxCell>
        <mxCell id="appupz2Tg2iBEeVuKGGf-48" value="" style="endArrow=classic;startArrow=classic;html=1;rounded=0;startSize=14;endSize=14;sourcePerimeterSpacing=8;targetPerimeterSpacing=8;curved=1;strokeWidth=4;strokeColor=#02C797;" edge="1" parent="1">
          <mxGeometry width="50" height="50" relative="1" as="geometry">
            <mxPoint x="920" y="1520" as="sourcePoint" />
            <mxPoint x="1290" y="1520" as="targetPoint" />
          </mxGeometry>
        </mxCell>
        <mxCell id="appupz2Tg2iBEeVuKGGf-49" value="" style="endArrow=classic;startArrow=classic;html=1;rounded=0;startSize=14;endSize=14;sourcePerimeterSpacing=8;targetPerimeterSpacing=8;curved=1;strokeWidth=4;strokeColor=#02C797;" edge="1" parent="1">
          <mxGeometry width="50" height="50" relative="1" as="geometry">
            <mxPoint x="1300" y="1520" as="sourcePoint" />
            <mxPoint x="1670" y="1520" as="targetPoint" />
          </mxGeometry>
        </mxCell>
        <mxCell id="appupz2Tg2iBEeVuKGGf-50" value="SQL/NoSQL,&lt;br style=&quot;font-size: 18px;&quot;&gt;Ferramentas de Data Wrangling, Ferramentas Estatísticas, Ferramentas de Visualização de Dados" style="text;strokeColor=none;fillColor=none;html=1;align=center;verticalAlign=middle;whiteSpace=wrap;rounded=0;fontSize=18;fontStyle=1;fontColor=#FFFFFF;" vertex="1" parent="1">
          <mxGeometry x="580" y="1540" width="300" height="120" as="geometry" />
        </mxCell>
        <mxCell id="appupz2Tg2iBEeVuKGGf-51" value="Ferramentas estatísticas avançadas, técnicas de&amp;nbsp;&lt;i&gt;machine learning, &lt;/i&gt;ferramentas de recuperação, transferência e armazenamento de dados em altos volumes" style="text;strokeColor=none;fillColor=none;html=1;align=center;verticalAlign=middle;whiteSpace=wrap;rounded=0;fontSize=18;fontStyle=1;fontColor=#FFFFFF;" vertex="1" parent="1">
          <mxGeometry x="960" y="1540" width="300" height="120" as="geometry" />
        </mxCell>
        <mxCell id="appupz2Tg2iBEeVuKGGf-52" value="Ferramentas de &lt;i&gt;devops&lt;/i&gt;, infraestrutura e escalabilidade, &lt;i&gt;logs, distributed tracing, &lt;/i&gt;métricas..." style="text;strokeColor=none;fillColor=none;html=1;align=center;verticalAlign=middle;whiteSpace=wrap;rounded=0;fontSize=18;fontStyle=1;fontColor=#FFFFFF;" vertex="1" parent="1">
          <mxGeometry x="1340" y="1540" width="300" height="120" as="geometry" />
        </mxCell>
        <mxCell id="appupz2Tg2iBEeVuKGGf-53" value="Complexo!" style="rounded=0;whiteSpace=wrap;html=1;rotation=0;labelBackgroundColor=none;fontSize=64;fontColor=#FF0000;fillColor=#FF0000;strokeColor=none;gradientColor=none;fillStyle=cross-hatch;fontStyle=1;textShadow=1;" vertex="1" parent="1">
          <mxGeometry x="330" y="1210" width="1390" height="520" as="geometry" />
        </mxCell>
      </root>
    </mxGraphModel>
  </diagram>
</mxfile>
